<svg width="21" height="23" viewBox="0 0 21 23" fill="none" xmlns="http://www.w3.org/2000/svg">
<path d="M10.177 0.809753C4.665 0.809753 0.199097 5.68165 0.199097 11.6947C0.199097 17.7078 4.665 22.5797 10.177 22.5797C15.6889 22.5797 20.1548 17.7078 20.1548 11.6947C20.1548 5.68165 15.6889 0.809753 10.177 0.809753ZM15.9706 12.9237C15.9706 13.2133 15.7533 13.4503 15.4878 13.4503H11.7863V17.4883C11.7863 17.778 11.569 18.015 11.3035 18.015H9.05044C8.7849 18.015 8.56764 17.778 8.56764 17.4883V13.4503H4.86617C4.60063 13.4503 4.38337 13.2133 4.38337 12.9237V10.4658C4.38337 10.1761 4.60063 9.93907 4.86617 9.93907H8.56764V5.9011C8.56764 5.61142 8.7849 5.37441 9.05044 5.37441H11.3035C11.569 5.37441 11.7863 5.61142 11.7863 5.9011V9.93907H15.4878C15.7533 9.93907 15.9706 10.1761 15.9706 10.4658V12.9237Z" fill="#C5C5C5"/>
</svg>
