<svg width="22" height="24" viewBox="0 0 22 24" fill="none" xmlns="http://www.w3.org/2000/svg">
<path d="M21.4677 4.91832C21.1264 3.95586 20.6342 3.08369 20.0187 2.35064C19.4028 1.61539 18.6766 1.0311 17.8796 0.62954C17.0532 0.211494 16.1668 -0.0024864 15.2719 2.1797e-05C14.0164 2.1797e-05 12.7915 0.418667 11.727 1.20944C11.4724 1.39861 11.2305 1.60638 11.0013 1.83276C10.7721 1.60638 10.5301 1.39861 10.2755 1.20944C9.21101 0.418667 7.9861 2.1797e-05 6.73063 2.1797e-05C5.82659 2.1797e-05 4.95057 0.210895 4.12293 0.62954C3.3233 1.03268 2.60261 1.61258 1.98379 2.35064C1.36751 3.08287 0.875206 3.95524 0.534783 4.91832C0.180808 5.91997 0 6.98364 0 8.07832C0 9.11097 0.173168 10.187 0.516957 11.2817C0.804722 12.1965 1.21727 13.1455 1.74441 14.1037C2.57969 15.6201 3.7282 17.2017 5.15429 18.8049C7.51753 21.4625 9.85784 23.2984 9.95716 23.3728L10.5607 23.8442C10.8281 24.0519 11.1719 24.0519 11.4393 23.8442L12.0428 23.3728C12.1421 23.2953 14.4799 21.4625 16.8457 18.8049C18.2718 17.2017 19.4203 15.6201 20.2556 14.1037C20.7827 13.1455 21.1978 12.1965 21.483 11.2817C21.8268 10.187 22 9.11097 22 8.07832C22.0025 6.98364 21.8217 5.91997 21.4677 4.91832Z" fill="#FF0000"/>
</svg>
