<svg width="24" height="24" viewBox="0 0 24 24" fill="none" xmlns="http://www.w3.org/2000/svg">
<path d="M6.78731 0.797543C6.25763 -0.0368084 5.04361 -0.271177 4.25613 0.35693C1.65464 2.43343 0 5.53178 0 9.00043H11.9997L6.78731 0.797543ZM23.2493 4.50056H20.9994C19.3448 4.50056 17.9995 5.84584 17.9995 7.50047V10.5004H0C0 12.8722 1.07809 15.019 2.82648 16.6268C1.20465 17.044 0 18.5017 0 20.2501C0 22.3219 1.67808 24 3.74989 24C5.82171 24 7.49978 22.3219 7.49978 20.2501C7.49978 19.8329 7.41541 19.4439 7.29354 19.0689C8.30601 19.3454 9.38411 19.5001 10.4997 19.5001C11.6153 19.5001 12.6981 19.3454 13.7059 19.0689C13.5793 19.4439 13.4996 19.8329 13.4996 20.2501C13.4996 22.3219 15.1777 24 17.2495 24C19.3213 24 20.9994 22.3219 20.9994 20.2501C20.9994 18.5017 19.7947 17.044 18.1729 16.6268C19.9213 15.019 20.9994 12.8722 20.9994 10.5004V7.50047H23.2493C23.6618 7.50047 23.9993 7.16298 23.9993 6.7505V5.25054C23.9993 4.83805 23.6618 4.50056 23.2493 4.50056ZM3.74989 21.7501C2.92492 21.7501 2.24994 21.0751 2.24994 20.2501C2.24994 19.4251 2.92492 18.7502 3.74989 18.7502C4.57487 18.7502 5.24985 19.4251 5.24985 20.2501C5.24985 21.0751 4.57487 21.7501 3.74989 21.7501ZM18.7495 20.2501C18.7495 21.0751 18.0745 21.7501 17.2495 21.7501C16.4245 21.7501 15.7495 21.0751 15.7495 20.2501C15.7495 19.4251 16.4245 18.7502 17.2495 18.7502C18.0745 18.7502 18.7495 19.4251 18.7495 20.2501Z" fill="#C5C5C5"/>
</svg>
