<svg width="18" height="22" viewBox="0 0 18 22" fill="none" xmlns="http://www.w3.org/2000/svg">
<path fill-rule="evenodd" clip-rule="evenodd" d="M0.890812 0.921197C3.53081 0.447197 6.23901 0.199997 9.00001 0.199997C11.761 0.199997 14.4703 0.447197 17.1092 0.921197C17.3021 0.955896 17.4775 1.06422 17.604 1.22686C17.7306 1.38951 17.8 1.59588 17.8 1.8092V4.5548C17.7997 5.27047 17.539 5.95674 17.0751 6.4628L11.9249 12.0824C11.461 12.5885 11.2003 13.2747 11.2 13.9904V17.6348C11.2 18.4556 10.859 19.2308 10.2716 19.7432L8.14091 21.6032C8.01954 21.7093 7.87316 21.7758 7.71863 21.7951C7.56411 21.8143 7.40774 21.7855 7.26757 21.712C7.1274 21.6385 7.00913 21.5233 6.9264 21.3796C6.84367 21.2359 6.79986 21.0697 6.80001 20.9V13.9916C6.80001 13.637 6.736 13.2859 6.61162 12.9583C6.48724 12.6308 6.30494 12.3331 6.07511 12.0824L0.924912 6.464C0.695088 6.21328 0.512782 5.91563 0.388403 5.58805C0.264025 5.26047 0.200009 4.90937 0.200012 4.5548V1.808C0.200015 1.59468 0.26947 1.38831 0.395993 1.22566C0.522515 1.06302 0.697879 0.954696 0.890812 0.919997V0.921197Z" fill="#C5C5C5"/>
</svg>
